<?xml version="1.0" standalone="no"?>
<!DOCTYPE svg PUBLIC "-//W3C//DTD SVG 20010904//EN" "http://www.w3.org/TR/2001/REC-SVG-20010904/DTD/svg10.dtd">
<svg focusable="false" preserveAspectRatio="xMidYMid meet" xmlns="http://www.w3.org/2000/svg" fill="currentColor" aria-label="Advanced Settings" width="24" height="24" viewBox="0 0 32 32" role="img">
	<path d="M30 8h-4.1c-.5-2.3-2.5-4-4.9-4s-4.4 1.7-4.9 4H2v2h14.1c.5 2.3 2.5 4 4.9 4s4.4-1.7 4.9-4H30V8zM21 12c-1.7 0-3-1.3-3-3s1.3-3 3-3 3 1.3 3 3S22.7 12 21 12zM2 24h4.1c.5 2.3 2.5 4 4.9 4s4.4-1.7 4.9-4H30v-2H15.9c-.5-2.3-2.5-4-4.9-4s-4.4 1.7-4.9 4H2V24zM11 20c1.7 0 3 1.3 3 3s-1.3 3-3 3-3-1.3-3-3S9.3 20 11 20z">
	</path>
</svg>
