<?xml version="1.0" standalone="no"?>
<!DOCTYPE svg PUBLIC "-//W3C//DTD SVG 20010904//EN" "http://www.w3.org/TR/2001/REC-SVG-20010904/DTD/svg10.dtd">
<svg focusable="false" preserveAspectRatio="xMidYMid meet" xmlns="http://www.w3.org/2000/svg" fill="currentColor" width="16" height="16" viewBox="0 0 32 32" aria-hidden="true" class="Tooltip__TooltipIcon-sc-1cm5k5r-0 eVjxwo svg-tooltip">
	<path d="M17 22L17 14 13 14 13 16 15 16 15 22 12 22 12 24 20 24 20 22 17 22zM16 8a1.5 1.5 0 101.5 1.5A1.5 1.5 0 0016 8z">
	</path>
	<path d="M26,28H6a2.0023,2.0023,0,0,1-2-2V6A2.0023,2.0023,0,0,1,6,4H26a2.0023,2.0023,0,0,1,2,2V26A2.0023,2.0023,0,0,1,26,28ZM6,6V26H26V6Z">
	</path>
</svg>
